<?xml version="1.0" standalone="no"?>
<!DOCTYPE svg PUBLIC "-//W3C//DTD SVG 20010904//EN"
 "http://www.w3.org/TR/2001/REC-SVG-20010904/DTD/svg10.dtd">
<svg version="1.0" xmlns="http://www.w3.org/2000/svg"
 width="1125.000000pt" height="1125.000000pt" viewBox="0 0 1125.000000 1125.000000"
 preserveAspectRatio="xMidYMid meet">
<metadata>
Created by potrace 1.14, written by Peter Selinger 2001-2017
</metadata>
<g transform="translate(0.000000,1125.000000) scale(0.100000,-0.100000)"
fill="#000000" stroke="none">
<path d="M5524 10581 c-17 -4 -37 -12 -45 -17 -8 -5 -81 -7 -164 -6 -82 2
-180 -1 -217 -7 -49 -8 -73 -8 -92 0 -31 14 -71 5 -94 -22 -27 -33 -80 -55
-177 -73 -49 -10 -121 -30 -160 -45 -38 -16 -142 -45 -230 -65 -199 -47 -225
-54 -354 -105 -58 -23 -115 -41 -128 -41 -12 0 -72 12 -132 26 -99 23 -118 24
-188 15 -43 -5 -88 -13 -100 -17 -17 -5 -24 -1 -29 12 -20 56 -80 73 -108 32
-25 -35 -21 -49 10 -38 45 17 64 13 64 -16 0 -16 -5 -24 -12 -22 -16 6 -41
-25 -62 -77 -15 -36 -15 -41 -1 -51 22 -17 19 -22 -19 -30 -34 -6 -35 -7 -76
-132 -23 -70 -47 -136 -55 -148 -7 -11 -45 -40 -84 -63 -39 -23 -119 -88 -183
-150 -281 -269 -494 -486 -592 -601 -234 -276 -248 -288 -376 -310 -41 -7
-113 -26 -160 -43 -101 -36 -168 -96 -189 -168 -7 -24 -20 -52 -29 -62 -27
-30 -21 -165 11 -265 34 -104 35 -165 4 -212 -13 -19 -31 -69 -41 -111 -12
-52 -31 -99 -63 -150 -25 -40 -50 -87 -56 -104 -6 -16 -28 -56 -48 -88 -21
-32 -43 -75 -50 -95 -16 -51 -57 -131 -86 -168 -13 -17 -36 -69 -52 -115 -16
-46 -48 -129 -71 -183 -29 -68 -40 -107 -36 -126 2 -15 -2 -51 -10 -81 -9 -30
-19 -70 -23 -89 -15 -70 -70 -180 -116 -234 -38 -45 -51 -72 -72 -143 -33
-120 -43 -343 -19 -460 24 -118 21 -152 -15 -207 -18 -26 -42 -54 -55 -63 -29
-19 -124 -147 -124 -167 0 -8 11 -27 24 -42 42 -50 127 -31 164 37 29 51 116
172 132 181 21 14 243 -91 265 -125 9 -14 23 -52 31 -84 8 -32 19 -74 24 -93
5 -19 10 -59 10 -87 0 -29 15 -119 34 -200 18 -82 38 -175 44 -208 18 -98 -8
-186 -71 -235 -33 -27 -34 -56 -3 -89 24 -26 56 -125 56 -174 0 -13 -8 -35
-17 -48 -10 -13 -27 -41 -38 -62 -25 -51 -60 -77 -101 -77 -25 0 -34 -5 -40
-22 -4 -13 -41 -59 -84 -103 -42 -44 -88 -100 -103 -125 -14 -25 -48 -67 -75
-94 l-50 -49 5 -73 6 -73 -42 -41 c-48 -48 -55 -86 -16 -96 16 -4 34 1 55 16
16 12 34 19 39 16 4 -3 11 -24 15 -47 4 -23 19 -60 35 -83 60 -87 61 -79 -16
-159 -46 -48 -76 -72 -92 -72 -24 -1 -71 -46 -71 -69 0 -36 81 -26 110 13 10
14 52 44 94 66 l75 39 54 -49 c30 -28 73 -62 95 -77 23 -15 62 -59 90 -100 47
-70 86 -110 166 -171 20 -15 43 -39 52 -52 15 -24 14 -27 -25 -86 -23 -34 -41
-65 -41 -69 0 -4 9 -15 19 -24 23 -21 41 -14 85 33 35 37 50 39 70 9 15 -21
15 -23 -12 -38 -16 -8 -49 -32 -73 -54 -35 -31 -39 -37 -19 -31 14 5 50 9 80
9 35 1 65 8 80 19 13 9 41 17 62 17 20 0 48 4 62 10 25 9 25 10 11 51 -9 23
-14 43 -13 44 28 21 167 40 379 52 117 6 153 -5 165 -53 3 -13 8 -24 10 -24 1
0 34 16 71 36 38 19 87 38 110 41 35 5 48 1 85 -26 24 -17 78 -70 122 -117 43
-47 108 -109 145 -138 36 -29 96 -82 132 -117 121 -119 248 -228 296 -255 26
-15 56 -34 65 -42 59 -50 183 -110 260 -126 156 -33 167 -37 199 -74 36 -41
68 -107 69 -140 0 -12 17 -41 39 -65 41 -45 64 -85 75 -129 5 -24 2 -28 -29
-39 -19 -7 -35 -16 -35 -20 0 -10 28 -19 60 -19 35 0 77 -18 84 -35 2 -7 -2
-39 -10 -71 -14 -53 -14 -58 3 -75 11 -11 43 -21 83 -26 73 -10 71 -4 45 -103
-18 -68 -16 -171 4 -209 14 -25 65 -45 97 -37 59 15 209 139 241 200 13 26 13
33 -1 71 -15 38 -22 44 -74 62 -78 27 -142 68 -142 93 0 11 14 29 30 42 27 20
30 27 30 79 0 65 9 76 65 81 63 5 59 37 -20 163 -10 17 -12 24 -5 17 8 -6 26
-12 41 -12 15 0 34 -6 41 -13 7 -7 49 -19 93 -26 85 -13 125 -32 125 -57 0
-47 93 -116 150 -112 30 3 34 0 42 -28 12 -47 33 -60 60 -40 13 9 38 27 56 41
39 28 119 40 277 40 92 0 117 -3 155 -22 64 -31 124 -49 209 -63 106 -18 135
-32 163 -82 21 -38 28 -43 63 -46 23 -2 70 8 112 22 l72 25 18 -59 c15 -53 22
-62 64 -85 92 -50 131 -29 144 77 5 48 3 63 -16 96 -22 38 -23 40 -5 67 17 25
21 27 66 21 42 -6 56 -2 114 29 121 64 187 41 251 -90 34 -69 82 -125 106
-125 22 0 50 22 59 46 7 17 5 37 -5 67 -24 69 -20 114 14 148 17 17 40 29 55
29 38 0 69 18 87 49 22 38 231 173 299 194 160 48 238 80 295 122 17 13 41 26
55 30 14 4 50 20 81 36 59 29 145 40 205 26 40 -10 84 22 84 62 0 29 27 51
250 197 63 42 136 94 162 116 26 21 69 48 95 60 27 11 83 45 125 74 84 58 109
64 148 34 51 -40 96 -13 86 51 -3 20 -8 43 -11 51 -6 15 87 148 115 163 32 18
173 158 293 293 65 73 163 174 218 225 55 50 120 121 143 157 47 70 189 356
395 795 67 144 94 209 139 340 27 77 72 236 72 253 0 21 57 13 112 -16 43 -23
58 -27 81 -20 15 6 27 15 27 22 0 12 -94 106 -147 147 -20 16 -20 19 -7 89 8
39 21 99 30 133 23 91 44 216 44 267 0 25 16 112 36 193 l36 148 69 67 c38 37
69 75 69 85 0 10 -7 29 -16 42 -13 21 -15 40 -9 108 6 78 5 84 -21 122 -15 22
-50 67 -79 100 -84 96 -96 129 -105 275 -8 120 -14 170 -45 360 -8 48 -12 111
-9 145 5 54 3 64 -20 95 -37 50 -50 82 -86 205 -51 175 -110 354 -140 425 -26
61 -41 99 -104 262 -33 86 -201 416 -225 442 -44 50 -162 268 -217 403 -19 47
-43 100 -53 117 -35 56 -254 264 -286 271 -17 4 -57 34 -91 67 -58 57 -151
128 -261 202 -33 22 -55 45 -59 61 -3 14 -19 32 -34 40 -15 8 -59 43 -96 77
-70 64 -205 168 -219 168 -12 0 -127 72 -200 126 -38 28 -81 55 -95 59 -41 12
-122 55 -172 91 -26 18 -73 46 -105 63 -32 16 -75 43 -96 60 -46 36 -131 70
-207 81 -63 10 -187 54 -212 77 -9 8 -48 19 -88 23 -43 5 -92 18 -126 35 -30
15 -83 31 -117 35 -80 10 -151 28 -204 51 -26 11 -66 19 -100 19 -32 0 -74 5
-93 11 -37 12 -147 24 -355 39 -137 10 -248 24 -264 35 -44 27 -402 46 -487
26z m-2026 -401 c7 0 10 -4 7 -10 -8 -13 -72 -13 -79 -1 -8 12 14 21 39 16 11
-3 26 -5 33 -5z m2216 -184 c21 -9 42 -30 61 -62 70 -122 156 -194 231 -194
54 0 95 24 189 111 90 83 135 109 194 109 53 0 81 -23 81 -68 1 -35 8 -43 126
-142 305 -256 331 -275 474 -340 151 -69 193 -77 307 -62 53 8 100 8 148 1 39
-5 104 -14 145 -18 78 -9 119 -23 260 -89 91 -42 236 -132 291 -180 19 -16 70
-51 114 -77 99 -58 225 -163 302 -252 32 -36 92 -103 133 -147 100 -108 216
-257 258 -331 18 -33 64 -105 101 -160 124 -182 126 -190 82 -349 -12 -46 -21
-109 -21 -150 0 -60 5 -79 30 -123 36 -64 108 -119 213 -168 85 -38 107 -67
107 -140 0 -19 14 -75 30 -125 17 -50 30 -98 30 -108 0 -9 14 -55 30 -102 35
-99 94 -358 109 -480 17 -139 36 -438 35 -550 -2 -240 -37 -514 -90 -715 -18
-71 -41 -168 -49 -213 -17 -90 -53 -200 -90 -272 -12 -25 -42 -106 -65 -180
-32 -102 -76 -201 -176 -403 -74 -148 -134 -273 -134 -278 0 -5 -16 -30 -36
-56 -19 -25 -49 -74 -66 -107 -38 -76 -200 -301 -318 -441 -170 -204 -295
-320 -445 -417 -38 -24 -99 -69 -134 -98 -152 -126 -674 -455 -755 -474 -16
-4 -72 -28 -123 -53 -92 -44 -96 -45 -162 -39 -58 6 -88 2 -192 -24 -68 -17
-171 -47 -229 -67 -95 -32 -111 -35 -175 -29 -38 4 -76 13 -84 20 -7 8 -15 44
-18 82 -6 82 -22 104 -71 104 -53 0 -72 -23 -72 -87 0 -45 -3 -53 -18 -53 -11
0 -27 -9 -37 -20 -33 -36 -63 -26 -128 45 -33 36 -66 65 -73 65 -7 0 -18 -16
-24 -35 -13 -39 -23 -42 -68 -19 -42 20 -64 15 -80 -19 -17 -36 -42 -36 -42 1
0 34 -25 72 -48 72 -10 0 -33 -13 -52 -30 -42 -35 -50 -36 -151 -10 -45 12
-106 20 -142 19 -34 -1 -75 2 -90 6 -23 6 -33 3 -57 -20 -32 -31 -40 -31 -170
-1 -84 20 -134 20 -150 1 -8 -10 -31 -15 -68 -15 -44 0 -64 6 -94 26 -21 15
-39 25 -41 23 -1 -2 -9 -17 -17 -34 -13 -25 -22 -30 -59 -33 -34 -3 -48 1 -63
18 -14 15 -26 19 -41 14 -12 -4 -29 -7 -37 -7 -97 6 -304 72 -462 147 -54 25
-140 66 -192 90 -51 24 -102 52 -113 63 -10 10 -40 27 -66 37 -26 10 -73 36
-105 59 -31 23 -77 55 -102 71 -25 16 -74 57 -110 91 -145 136 -255 224 -357
287 -117 71 -348 276 -411 363 -20 27 -61 79 -91 114 -31 35 -72 87 -91 116
-19 29 -53 77 -76 106 -22 30 -54 77 -69 104 -16 28 -58 93 -93 145 -35 52
-114 199 -177 325 -87 178 -124 266 -163 390 -28 88 -67 212 -87 275 -20 63
-43 160 -51 215 -8 55 -22 125 -31 155 -9 30 -19 111 -24 180 -37 601 -36 581
-21 910 7 166 14 237 26 270 10 25 23 68 30 95 33 124 112 291 207 435 53 80
115 182 138 226 74 145 129 193 296 263 152 64 164 71 242 147 128 125 163
240 163 549 0 134 -4 194 -21 281 -12 63 -19 123 -15 138 4 15 21 36 39 47 38
24 104 22 256 -5 73 -14 132 -17 255 -13 150 4 165 6 226 32 84 37 171 44 250
20 l59 -18 46 28 c42 24 55 27 115 23 64 -3 74 -7 152 -61 76 -52 87 -64 128
-139 37 -68 57 -91 109 -130 59 -44 68 -48 120 -47 36 0 72 8 100 22 41 20 47
27 63 82 30 98 88 329 88 348 0 24 -23 21 -47 -5 -33 -37 -41 -59 -58 -169
-18 -120 -44 -229 -57 -246 -21 -26 -168 74 -168 114 0 11 -13 46 -30 79 -53
108 -48 174 15 174 12 0 33 9 46 19 19 15 24 29 24 68 0 36 14 78 54 168 75
167 123 235 170 235 18 0 43 18 86 63 62 64 81 96 136 227 32 77 46 100 59
100 4 0 24 -11 44 -25 20 -14 48 -25 61 -25 32 0 142 107 218 211 40 55 68 83
99 97 77 38 280 54 342 28z"/>
<path d="M4905 5971 c-81 -20 -116 -70 -123 -176 -10 -153 39 -235 139 -235
28 0 60 5 72 11 16 9 22 9 25 0 2 -6 25 -11 53 -11 l49 0 0 120 0 120 -75 0
-75 0 0 -45 c0 -33 4 -45 15 -45 9 0 15 -9 15 -25 0 -20 -5 -25 -24 -25 -35 0
-56 35 -56 92 0 76 13 98 57 98 21 0 52 -4 70 -9 l31 -9 11 61 c6 33 9 62 7
64 -5 6 -119 23 -141 22 -11 -1 -33 -4 -50 -8z"/>
<path d="M6618 5971 c-94 -19 -133 -86 -126 -221 7 -141 54 -191 183 -191 135
0 194 77 183 241 -6 78 -29 126 -73 151 -36 21 -116 30 -167 20z m90 -123 c7
-7 12 -42 12 -88 0 -81 -9 -100 -47 -100 -32 0 -43 28 -43 107 0 73 10 93 45
93 12 0 26 -5 33 -12z"/>
<path d="M7415 5969 c-99 -24 -146 -142 -114 -288 12 -58 40 -98 78 -113 34
-13 104 -12 129 1 14 7 23 8 27 1 3 -5 29 -10 56 -10 l50 0 -3 118 -3 117 -75
0 -75 0 -3 -41 c-3 -35 0 -42 18 -47 27 -7 23 -41 -5 -45 -41 -6 -57 19 -58
91 0 40 4 72 12 81 15 18 60 21 108 7 36 -11 37 -9 48 70 6 43 5 47 -17 52
-52 12 -135 15 -173 6z"/>
<path d="M8425 5971 c-76 -19 -105 -53 -105 -127 0 -65 23 -96 98 -132 81 -39
67 -53 -43 -41 l-40 4 -3 -52 c-3 -49 -2 -51 25 -57 30 -6 86 -9 146 -7 56 1
107 52 114 112 8 70 -15 104 -93 141 -35 16 -64 34 -64 40 0 6 26 9 68 7 l67
-4 6 50 c4 28 4 53 0 56 -10 11 -144 18 -176 10z"/>
<path d="M2626 5954 c-3 -9 -6 -33 -6 -55 l0 -39 45 0 45 0 0 -150 0 -150 70
0 70 0 0 150 0 150 45 0 45 0 0 39 c0 22 3 46 6 55 5 14 -12 16 -154 16 -137
0 -161 -2 -166 -16z"/>
<path d="M2970 5765 l0 -205 65 0 65 0 0 71 c0 38 4 68 8 65 5 -3 17 -35 27
-71 l17 -65 73 0 73 0 -30 85 -31 85 23 25 c30 32 38 101 15 148 -24 51 -70
67 -200 67 l-105 0 0 -205z m165 55 c0 -25 -5 -36 -17 -38 -15 -3 -18 4 -18
38 0 34 3 41 18 38 12 -2 17 -13 17 -38z"/>
<path d="M3340 5765 l0 -205 129 0 129 0 4 50 3 50 -62 0 -63 0 0 30 c0 29 1
30 50 30 l50 0 0 45 0 45 -50 0 c-47 0 -50 2 -50 25 0 24 3 25 59 25 l59 0 4
55 3 55 -132 0 -133 0 0 -205z"/>
<path d="M3624 5948 c3 -13 22 -105 42 -205 l37 -183 101 0 102 0 37 198 c21
108 37 200 37 205 0 4 -31 7 -69 7 l-69 0 -5 -32 c-4 -18 -9 -67 -13 -108 -11
-121 -20 -125 -33 -15 -20 170 -11 155 -98 155 -73 0 -75 -1 -69 -22z"/>
<path d="M4036 5778 c-22 -106 -41 -199 -44 -206 -3 -10 11 -12 64 -10 67 3
69 4 72 31 3 24 7 27 43 27 36 0 40 -3 46 -30 5 -30 6 -30 75 -30 68 0 70 1
65 23 -3 12 -22 104 -43 205 l-38 182 -100 0 -101 0 -39 -192z m164 -60 c0 -5
-11 -8 -25 -8 -29 0 -30 7 -13 82 l11 53 13 -60 c7 -33 13 -63 14 -67z"/>
<path d="M4390 5813 c0 -175 5 -194 59 -230 28 -19 47 -23 108 -23 89 0 136
19 161 64 13 24 18 64 20 189 l4 157 -71 0 -71 0 0 -133 c0 -146 -11 -183 -47
-161 -16 10 -18 29 -21 153 l-3 141 -69 0 -70 0 0 -157z"/>
<path d="M5180 5765 l0 -205 70 0 70 0 0 75 0 75 35 0 35 0 0 -75 0 -75 70 0
70 0 0 205 0 205 -70 0 -70 0 0 -75 0 -75 -35 0 -35 0 0 75 0 75 -70 0 -70 0
0 -205z"/>
<path d="M5580 5765 l0 -205 65 0 65 0 1 83 0 82 42 -82 41 -83 68 0 68 0 0
205 0 205 -65 0 -65 0 -1 -82 0 -83 -39 83 -39 82 -70 0 -71 0 0 -205z"/>
<path d="M6110 5765 l0 -205 93 0 c114 0 162 13 203 54 40 40 58 103 51 183
-6 79 -31 122 -87 151 -38 19 -60 22 -152 22 l-108 0 0 -205z m191 78 c16 -18
18 -149 3 -163 -5 -4 -19 -11 -31 -15 -23 -6 -23 -5 -23 94 0 92 2 101 19 101
10 0 25 -7 32 -17z"/>
<path d="M6900 5818 c0 -126 3 -159 18 -188 24 -48 74 -71 157 -71 83 0 133
23 157 71 15 29 18 62 18 188 l0 152 -70 0 -70 0 0 -137 c0 -76 -4 -144 -9
-151 -5 -8 -17 -12 -27 -10 -17 3 -19 16 -22 151 l-3 147 -74 0 -75 0 0 -152z"/>
<path d="M7690 5765 l0 -205 190 0 191 0 6 30 c5 27 9 30 43 30 34 0 39 -3 45
-30 7 -30 7 -30 76 -30 67 0 69 1 64 23 -3 12 -22 103 -43 202 l-37 180 -101
3 -101 3 -37 -183 c-21 -101 -41 -185 -43 -188 -3 -3 -3 12 1 33 l7 37 -61 0
-60 0 0 150 0 150 -70 0 -70 0 0 -205z m448 -2 c9 -52 9 -53 -16 -53 -24 0
-24 1 -18 52 7 52 17 81 22 63 2 -6 7 -34 12 -62z"/>
<path d="M4036 5431 c-24 -27 -14 -52 31 -76 21 -11 39 -28 41 -38 5 -25 -27
-33 -60 -14 -27 15 -28 15 -28 -3 0 -17 7 -20 44 -20 35 0 48 5 60 22 9 12 16
26 16 30 0 4 -21 21 -46 38 -28 20 -44 38 -42 48 5 25 34 26 58 2 l22 -22 -4
24 c-4 32 -66 38 -92 9z"/>
<path d="M4205 5428 c-59 -52 -33 -148 40 -148 51 0 95 42 95 89 0 73 -79 107
-135 59z m85 -8 c27 -27 27 -90 0 -115 -38 -35 -90 5 -90 70 0 28 32 65 55 65
8 0 24 -9 35 -20z"/>
<path d="M4383 5439 c13 -8 17 -24 17 -72 0 -36 -5 -68 -12 -75 -9 -9 -3 -12
28 -11 21 1 31 3 22 6 -26 7 -25 73 0 73 10 0 23 -5 30 -12 9 -9 12 -4 12 23
-1 28 -2 31 -11 17 -5 -10 -19 -18 -29 -18 -16 0 -20 7 -20 35 0 33 2 35 31
35 19 0 37 -7 45 -17 12 -17 13 -16 14 5 0 21 -4 22 -72 22 -55 -1 -69 -3 -55
-11z"/>
<path d="M4550 5423 l0 -27 16 22 c8 12 22 22 30 22 18 0 20 -130 2 -148 -9
-9 -4 -12 22 -12 26 0 31 3 22 12 -7 7 -12 40 -12 80 0 75 15 89 51 46 l18
-23 1 28 0 27 -75 0 c-75 0 -75 0 -75 -27z"/>
<path d="M4727 5438 c6 -7 22 -46 37 -85 15 -40 32 -73 36 -73 14 0 24 22 13
29 -5 3 -19 31 -30 62 -16 42 -18 60 -10 68 8 8 2 11 -22 11 -25 0 -31 -3 -24
-12z"/>
<path d="M4825 5430 c13 -14 16 -28 11 -52 -4 -20 -3 -28 3 -19 10 15 14 10
31 -42 6 -21 17 -36 23 -34 7 2 23 33 37 69 14 36 31 73 39 82 12 14 9 16 -25
16 -36 -1 -37 -2 -18 -13 l21 -12 -22 -60 c-15 -37 -25 -54 -29 -45 -31 80
-35 104 -25 116 9 11 4 14 -26 14 -37 0 -38 0 -20 -20z"/>
<path d="M5030 5418 c-11 -18 -20 -37 -20 -43 1 -5 8 3 16 19 17 31 29 26 40
-18 7 -28 6 -28 -28 -24 -32 3 -37 0 -56 -34 l-20 -38 31 0 c27 0 29 1 13 13
-29 21 -10 47 35 47 42 0 68 -27 47 -48 -9 -9 -4 -12 21 -12 26 0 31 3 23 13
-6 6 -22 42 -37 80 -15 37 -31 70 -36 73 -5 3 -18 -10 -29 -28z"/>
<path d="M5168 5443 c8 -3 12 -29 12 -78 0 -49 -4 -75 -12 -78 -7 -3 5 -5 27
-5 22 0 34 2 28 5 -20 7 -18 142 2 149 20 8 45 -13 45 -38 0 -10 -9 -22 -19
-26 -18 -7 -18 -9 6 -49 16 -28 32 -43 45 -43 18 0 16 4 -12 41 l-33 40 22 15
c23 17 27 44 9 62 -7 7 -38 12 -72 11 -34 0 -55 -3 -48 -6z"/>
<path d="M5348 5443 c8 -3 12 -29 12 -78 0 -49 -4 -75 -12 -78 -7 -3 20 -6 60
-6 68 -1 72 0 72 22 -1 20 -2 21 -14 5 -8 -11 -26 -18 -45 -18 -29 0 -31 2
-31 35 0 28 4 35 20 35 11 0 20 -4 20 -10 0 -5 5 -10 10 -10 6 0 10 11 10 25
0 14 -4 25 -10 25 -5 0 -10 -4 -10 -10 0 -5 -9 -10 -20 -10 -16 0 -20 7 -20
35 0 33 2 35 31 35 19 0 37 -7 45 -17 12 -17 13 -16 14 5 0 21 -4 22 -72 21
-40 0 -67 -3 -60 -6z"/>
<path d="M5588 5443 c8 -3 12 -29 12 -78 0 -49 -4 -75 -12 -78 -7 -3 9 -6 35
-6 26 -1 61 6 76 14 54 27 64 108 18 140 -14 10 -44 15 -82 14 -33 0 -54 -3
-47 -6z m111 -29 c12 -15 21 -40 21 -55 0 -36 -34 -71 -63 -67 -19 3 -22 10
-25 62 -2 32 -1 65 2 72 9 23 43 16 65 -12z"/>
<path d="M5788 5443 c16 -6 16 -135 0 -151 -9 -9 4 -12 60 -12 72 0 72 0 72
27 l0 27 -16 -22 c-10 -14 -25 -22 -45 -22 -27 0 -29 3 -29 35 0 28 4 35 19
35 11 0 22 -8 24 -17 3 -10 5 -2 6 17 1 26 -2 31 -11 22 -23 -23 -38 -13 -38
23 0 32 2 35 29 35 20 0 35 -8 45 -22 l16 -22 0 27 c0 27 0 27 -72 26 -40 0
-67 -3 -60 -6z"/>
<path d="M5974 5408 c12 -24 29 -62 38 -85 9 -24 21 -43 28 -43 6 0 20 21 31
48 11 26 28 64 38 85 l18 37 -30 0 c-28 0 -29 -1 -13 -13 17 -12 16 -16 -6
-70 -13 -31 -26 -57 -29 -57 -12 0 -51 109 -45 125 4 11 -2 15 -23 15 l-28 0
21 -42z"/>
<path d="M6158 5443 c16 -6 16 -135 0 -151 -9 -9 4 -12 60 -12 72 0 72 0 72
27 l0 27 -16 -22 c-10 -14 -25 -22 -45 -22 -27 0 -29 3 -29 35 0 28 4 35 19
35 11 0 22 -6 24 -12 3 -7 5 1 5 17 0 17 -2 24 -5 18 -2 -7 -13 -13 -24 -13
-15 0 -19 7 -19 35 0 31 3 35 27 35 14 0 35 -7 45 -17 17 -15 18 -15 18 5 0
21 -5 22 -72 21 -40 0 -67 -3 -60 -6z"/>
<path d="M6338 5443 c16 -6 16 -135 0 -151 -9 -9 4 -12 60 -12 l72 0 -1 28 0
27 -16 -22 c-10 -15 -26 -23 -44 -23 l-29 0 0 68 c0 40 5 73 12 80 9 9 3 12
-27 11 -22 0 -34 -3 -27 -6z"/>
<path d="M6541 5424 c-60 -50 -32 -144 42 -144 57 1 102 54 91 110 -13 61 -80
79 -133 34z m84 -9 c31 -30 33 -77 5 -105 -25 -25 -42 -25 -69 -2 -32 26 -37
72 -11 105 27 33 44 34 75 2z"/>
<path d="M6718 5443 c16 -6 16 -135 0 -151 -9 -9 -2 -12 33 -11 36 0 40 2 22
9 -21 8 -23 16 -23 75 0 52 4 67 16 72 25 10 49 -11 49 -43 0 -21 -6 -30 -25
-35 -21 -6 -21 -7 -5 -8 30 -1 65 27 65 53 0 36 -19 46 -84 45 -34 0 -55 -3
-48 -6z"/>
<path d="M6888 5443 c16 -6 16 -135 0 -151 -9 -9 4 -12 60 -12 72 0 72 0 72
27 l0 27 -16 -22 c-10 -14 -25 -22 -45 -22 -27 0 -29 3 -29 35 0 28 4 35 19
35 11 0 22 -6 24 -12 3 -7 5 1 5 17 0 17 -2 24 -5 18 -2 -7 -13 -13 -24 -13
-15 0 -19 7 -19 35 0 32 2 35 29 35 20 0 35 -8 45 -22 l16 -22 0 27 c0 27 0
27 -72 26 -40 0 -67 -3 -60 -6z"/>
<path d="M7068 5443 c16 -6 16 -135 0 -151 -9 -9 -3 -12 28 -11 21 0 33 3 27
6 -9 3 -13 29 -13 79 0 66 2 74 19 74 10 0 24 -7 31 -15 16 -20 3 -55 -21 -55
-18 0 -17 -4 11 -45 21 -31 38 -45 53 -45 19 1 20 2 7 13 -8 7 -23 24 -33 39
-17 27 -17 28 3 48 24 24 25 34 4 54 -11 11 -33 16 -72 15 -31 0 -51 -3 -44
-6z"/>
<path d="M2620 5365 c0 -13 71 -15 575 -15 504 0 575 2 575 15 0 13 -71 15
-575 15 -504 0 -575 -2 -575 -15z"/>
<path d="M7470 5365 c0 -13 71 -15 575 -15 504 0 575 2 575 15 0 13 -71 15
-575 15 -504 0 -575 -2 -575 -15z"/>
</g>
</svg>
