<?xml version="1.0" standalone="no"?>
<!DOCTYPE svg PUBLIC "-//W3C//DTD SVG 20010904//EN"
 "http://www.w3.org/TR/2001/REC-SVG-20010904/DTD/svg10.dtd">
<svg version="1.0" xmlns="http://www.w3.org/2000/svg"
 width="1125.000000pt" height="1125.000000pt" viewBox="0 0 1125.000000 1125.000000"
 preserveAspectRatio="xMidYMid meet">
<metadata>
Created by potrace 1.14, written by Peter Selinger 2001-2017
</metadata>
<g transform="translate(0.000000,1125.000000) scale(0.100000,-0.100000)"
fill="#000000" stroke="none">
<path d="M5524 10580 c-18 -4 -40 -10 -50 -14 -11 -4 -104 -8 -209 -8 -109 -1
-195 -5 -203 -11 -8 -6 -27 -5 -56 3 -46 13 -81 3 -99 -27 -4 -7 -25 -22 -47
-33 -35 -18 -50 -22 -140 -36 -48 -8 -97 -22 -145 -43 -53 -23 -95 -35 -250
-71 -197 -46 -211 -51 -329 -97 -109 -43 -154 -51 -199 -34 -13 5 -37 12 -53
15 -16 3 -46 9 -66 14 -38 10 -182 7 -199 -4 -25 -15 -60 -14 -66 3 -11 33
-36 53 -63 53 -30 0 -49 -17 -55 -50 -3 -17 -1 -20 13 -15 9 5 29 10 45 13 24
4 27 1 27 -23 0 -17 -5 -25 -12 -23 -15 5 -38 -23 -63 -76 -17 -36 -17 -39 -2
-48 26 -14 20 -27 -17 -33 -33 -7 -35 -9 -70 -118 -47 -145 -70 -185 -125
-214 -24 -12 -60 -35 -80 -50 -54 -41 -239 -219 -362 -348 -37 -39 -94 -93
-128 -122 -34 -29 -121 -121 -192 -205 -260 -305 -290 -332 -382 -343 -199
-25 -344 -108 -376 -216 -7 -24 -20 -52 -28 -61 -26 -29 -22 -168 6 -253 13
-38 25 -95 28 -126 5 -48 2 -61 -21 -97 -14 -23 -26 -50 -26 -59 0 -36 -40
-147 -67 -187 -28 -42 -72 -125 -73 -138 0 -4 -18 -35 -39 -68 -22 -34 -45
-78 -52 -98 -15 -48 -51 -119 -87 -173 -16 -24 -37 -69 -47 -99 -10 -30 -38
-102 -63 -160 -31 -73 -46 -122 -48 -160 -3 -67 -32 -183 -68 -269 -24 -60
-56 -110 -99 -156 -24 -25 -35 -52 -57 -140 -26 -102 -31 -139 -32 -245 -1
-99 7 -177 23 -232 25 -88 4 -154 -73 -230 -54 -54 -128 -150 -128 -168 0 -5
5 -20 11 -34 29 -63 142 -48 179 24 30 60 116 180 132 185 11 4 64 -16 133
-50 118 -57 154 -90 155 -140 1 -11 8 -38 16 -60 8 -22 17 -74 20 -115 3 -41
17 -127 31 -190 40 -181 60 -296 56 -336 -4 -49 -39 -118 -74 -143 -35 -26
-37 -56 -5 -90 24 -26 56 -125 56 -175 0 -14 -9 -35 -20 -46 -11 -11 -20 -26
-20 -34 0 -7 -16 -34 -36 -60 -25 -33 -42 -47 -57 -45 -44 3 -53 -2 -72 -37
-10 -19 -47 -62 -81 -94 -35 -32 -74 -80 -87 -107 -14 -27 -50 -73 -80 -102
l-55 -53 5 -77 6 -77 -36 -31 c-50 -43 -61 -68 -41 -87 20 -21 36 -20 78 4 39
24 48 17 52 -34 1 -17 21 -62 44 -99 l43 -68 -69 -72 c-49 -51 -75 -71 -91
-70 -38 3 -97 -84 -60 -88 44 -5 74 4 97 30 22 25 149 101 168 101 4 0 28 -19
53 -43 25 -23 66 -56 91 -73 26 -18 68 -64 99 -110 33 -47 83 -102 127 -138
40 -34 80 -71 88 -84 15 -21 13 -26 -26 -84 -22 -34 -39 -66 -37 -71 2 -6 13
-17 24 -24 20 -14 25 -11 67 27 47 44 67 46 85 12 9 -17 6 -22 -18 -32 -15 -6
-48 -30 -72 -52 -43 -40 -43 -41 -14 -32 17 4 51 9 76 9 25 1 61 8 80 17 19 9
55 18 82 21 65 8 68 11 51 59 -7 22 -14 42 -14 43 0 1 28 9 63 18 70 18 195
30 344 31 96 1 102 0 123 -24 12 -13 19 -32 17 -42 -4 -13 12 -8 72 23 101 53
145 57 202 19 24 -16 78 -67 119 -113 41 -46 95 -99 120 -118 55 -41 122 -101
170 -150 68 -70 245 -221 290 -247 25 -14 53 -32 63 -41 21 -18 73 -50 137
-84 38 -21 58 -28 120 -42 3 -1 25 -5 50 -9 71 -13 74 -14 101 -24 50 -19 118
-125 119 -183 0 -16 13 -38 36 -60 37 -35 67 -85 78 -130 5 -24 2 -29 -37 -44
-37 -15 -39 -18 -22 -26 11 -4 34 -8 52 -8 38 -1 80 -19 87 -37 3 -7 0 -28 -5
-46 -28 -92 -14 -116 72 -124 87 -8 82 5 49 -121 -24 -94 -6 -194 41 -219 40
-20 63 -16 127 23 29 18 54 33 57 33 10 0 107 107 121 134 14 26 14 33 -1 72
-10 28 -24 45 -38 49 -84 23 -177 78 -177 104 0 11 14 31 31 44 28 22 32 31
33 78 1 69 9 79 56 79 57 0 64 20 29 89 -16 31 -37 67 -46 81 -13 18 -14 22
-3 14 8 -6 28 -11 44 -12 16 -1 34 -8 40 -16 6 -7 31 -16 56 -20 129 -17 137
-21 162 -73 28 -59 98 -107 144 -98 29 5 32 2 47 -35 20 -52 39 -58 74 -25 59
56 123 70 318 70 92 0 117 -3 155 -22 64 -31 124 -49 209 -63 109 -18 140 -34
159 -81 16 -37 28 -46 76 -53 10 -1 53 10 96 25 l77 27 19 -58 c16 -49 25 -62
62 -84 23 -14 56 -26 72 -26 37 0 70 31 71 68 1 15 3 43 5 62 1 21 -5 47 -16
65 -38 62 -13 94 73 92 52 -1 69 3 103 26 61 41 97 49 142 30 47 -20 79 -55
108 -118 28 -62 72 -114 101 -120 35 -6 65 25 65 67 0 19 -5 45 -11 56 -6 11
-11 39 -11 62 0 33 6 48 29 71 16 16 38 30 48 30 53 4 77 15 96 49 24 39 227
172 297 193 165 49 264 91 300 127 11 11 25 20 30 20 6 0 41 14 77 31 76 36
156 50 217 38 52 -10 91 14 91 55 -1 30 39 62 255 202 63 41 136 93 162 115
26 22 73 51 103 64 30 14 85 47 122 73 38 27 75 51 84 55 9 3 32 -5 52 -19 41
-28 54 -29 81 -9 15 11 17 22 12 54 -3 21 -8 45 -11 53 -7 18 86 143 127 172
43 30 151 136 210 207 59 70 306 322 334 340 37 24 123 147 169 242 25 51 50
99 55 107 6 8 40 80 77 160 38 80 78 162 90 183 13 21 26 50 30 65 3 15 36 88
72 162 64 131 146 338 170 430 7 25 20 73 28 107 11 42 22 63 35 66 9 3 46
-10 80 -27 52 -27 68 -31 91 -24 15 5 27 15 27 22 0 15 -112 127 -140 140 -10
5 -20 16 -22 25 -3 16 11 93 30 166 6 22 13 51 16 65 3 14 10 43 15 65 6 22
10 40 9 40 0 0 10 116 17 180 2 22 11 68 20 102 9 35 18 71 20 81 16 87 36
123 99 184 69 65 78 87 50 126 -16 23 -18 57 -8 133 7 53 -5 82 -59 144 -85
97 -98 116 -119 161 -15 35 -22 74 -24 134 -3 93 -7 125 -22 215 -23 128 -35
243 -36 322 -1 75 -3 84 -28 110 -31 32 -55 95 -99 258 -29 110 -71 235 -110
330 -23 55 -52 130 -97 250 -43 116 -186 396 -253 495 -63 93 -174 306 -214
410 -34 87 -46 104 -161 222 -103 105 -156 148 -183 148 -9 0 -43 26 -76 59
-57 55 -178 151 -273 215 -23 16 -45 39 -48 51 -3 13 -27 37 -52 54 -26 17
-72 54 -103 84 -31 29 -81 70 -113 91 -31 22 -56 43 -56 48 0 4 -6 8 -14 8
-20 0 -127 64 -211 126 -38 28 -81 55 -95 59 -41 13 -121 55 -186 100 -33 23
-76 47 -95 55 -19 7 -53 29 -76 47 -56 45 -138 80 -215 93 -72 11 -194 53
-218 75 -9 8 -50 19 -91 25 -40 6 -97 22 -126 36 -29 14 -69 27 -90 30 -79 10
-189 36 -217 51 -15 8 -54 17 -85 19 -78 5 -143 14 -162 25 -9 4 -52 10 -95
13 -83 5 -297 22 -398 31 -33 3 -65 10 -71 15 -35 29 -408 52 -501 30z m-2016
-407 c-12 -15 -74 -17 -82 -4 -8 12 7 16 54 16 29 0 36 -3 28 -12z m2182 -167
c0 3 13 -2 29 -10 16 -9 41 -37 57 -63 47 -81 115 -154 167 -178 40 -19 55
-21 90 -13 57 12 65 18 200 143 54 51 104 75 156 75 54 0 81 -23 81 -69 0 -30
6 -42 31 -60 17 -13 92 -76 167 -140 244 -209 271 -226 495 -323 55 -24 139
-30 242 -17 44 6 98 2 215 -15 19 -3 57 -8 85 -11 102 -13 399 -163 505 -255
19 -17 73 -53 119 -81 46 -27 107 -68 135 -91 85 -70 330 -328 404 -426 49
-64 48 -62 87 -107 19 -22 49 -67 66 -100 18 -33 48 -82 68 -109 77 -106 152
-240 153 -273 0 -15 -9 -58 -20 -96 -39 -123 -45 -226 -17 -291 26 -62 106
-131 208 -181 51 -24 98 -53 105 -64 6 -12 16 -50 21 -85 5 -36 18 -91 29
-123 11 -32 26 -83 33 -113 6 -30 23 -84 36 -120 23 -61 27 -74 37 -125 51
-238 67 -324 71 -395 9 -143 14 -211 22 -300 12 -144 4 -434 -16 -546 -6 -32
-13 -81 -16 -109 -9 -79 -13 -99 -61 -295 -77 -320 -84 -342 -119 -414 -19
-39 -38 -89 -44 -111 -27 -110 -95 -275 -212 -510 -71 -143 -129 -266 -129
-272 0 -6 -4 -13 -8 -15 -13 -5 -67 -88 -100 -154 -17 -33 -48 -82 -69 -110
-22 -27 -57 -76 -80 -109 -52 -77 -263 -334 -351 -427 -28 -30 -201 -164 -262
-203 -41 -26 -77 -50 -80 -54 -13 -16 -150 -121 -190 -146 -25 -15 -118 -77
-208 -137 -175 -117 -332 -207 -397 -227 -22 -7 -81 -33 -131 -57 -89 -43 -94
-44 -170 -40 -66 4 -100 -1 -209 -29 -71 -18 -166 -47 -210 -63 -67 -24 -93
-29 -158 -27 -99 3 -108 11 -113 101 -6 79 -23 105 -72 106 -50 2 -72 -25 -72
-89 0 -42 -3 -53 -16 -53 -9 0 -27 -9 -41 -20 -14 -11 -34 -20 -44 -20 -17 0
-68 45 -116 103 -31 36 -49 34 -63 -8 -13 -39 -24 -42 -66 -20 -43 22 -63 18
-82 -15 -21 -38 -42 -39 -42 -2 0 70 -52 88 -107 38 -34 -31 -43 -32 -146 -5
-45 12 -98 21 -117 20 -55 -4 -83 -3 -115 4 -24 5 -35 2 -54 -19 -30 -31 -45
-32 -158 -5 -103 25 -139 26 -162 5 -29 -26 -120 -21 -161 9 -36 26 -44 24
-64 -17 -16 -33 -93 -39 -115 -9 -14 18 -21 20 -49 12 -21 -6 -43 -6 -58 0
-14 5 -37 9 -52 9 -36 0 -256 74 -340 114 -37 18 -125 59 -195 91 -71 33 -140
70 -155 83 -14 14 -42 29 -61 34 -20 6 -72 36 -116 67 -44 31 -91 64 -105 73
-14 9 -63 50 -108 91 -45 41 -123 109 -174 151 -119 98 -116 96 -121 96 -12 0
-126 74 -152 99 -16 15 -77 68 -135 117 -119 100 -109 90 -173 175 -56 74
-113 143 -142 173 -11 12 -34 42 -50 67 -17 26 -48 71 -71 100 -22 30 -54 77
-69 104 -16 28 -54 88 -86 135 -51 77 -74 118 -151 260 -13 25 -35 72 -48 105
-13 33 -37 81 -52 106 -34 56 -71 160 -143 406 -30 100 -58 190 -63 200 -9 17
-17 58 -27 128 -17 123 -16 119 -39 200 -7 28 -14 92 -15 144 -1 52 -4 98 -7
102 -3 5 -7 73 -10 150 -3 78 -9 171 -12 208 -8 77 -7 203 2 351 4 58 8 155
11 215 3 86 9 126 29 182 14 40 26 78 26 85 0 7 23 67 50 133 28 66 50 123 50
126 0 3 43 70 95 148 52 79 116 184 142 233 30 60 66 111 102 147 56 56 84 73
221 131 118 50 138 62 200 117 97 88 150 187 167 310 9 69 10 452 1 503 -3 19
-12 56 -18 82 -28 110 13 158 129 153 66 -3 112 -9 186 -25 22 -5 114 -9 204
-9 126 0 173 4 200 16 135 58 216 68 300 37 l51 -18 56 28 c49 25 63 28 125
24 51 -4 76 -10 92 -25 12 -11 47 -37 78 -57 46 -30 62 -49 89 -102 42 -84 64
-110 135 -158 48 -33 65 -40 104 -39 27 1 69 12 96 25 46 21 50 27 68 83 10
33 20 69 23 80 2 11 19 77 38 148 19 73 30 130 24 133 -14 9 -56 -23 -72 -55
-14 -26 -23 -68 -41 -196 -10 -64 -37 -169 -47 -182 -7 -9 -22 -5 -58 13 -65
33 -110 76 -110 107 0 13 -8 35 -18 48 -32 44 -60 153 -44 177 5 7 17 14 28
16 35 7 72 25 80 38 5 7 9 33 10 58 0 47 72 225 122 305 29 46 73 101 78 98 2
-2 14 -3 26 -3 14 0 46 25 89 70 52 54 74 86 99 147 78 190 79 191 136 148 20
-15 47 -27 60 -27 29 0 161 130 219 216 63 93 110 116 270 131 39 4 71 8 73
10 2 1 19 -1 38 -5 18 -4 34 -6 34 -4z"/>
<path d="M4904 5970 c-46 -10 -89 -45 -105 -82 -22 -52 -19 -216 5 -260 33
-61 101 -87 170 -63 27 9 42 11 47 4 3 -6 28 -9 55 -7 l49 3 0 113 c0 61 -2
113 -5 114 -3 0 -38 2 -77 3 l-73 1 0 -39 c0 -26 6 -44 17 -52 23 -17 10 -46
-19 -42 -34 5 -49 43 -45 108 3 32 8 62 11 68 9 13 69 14 114 2 23 -7 32 -6
33 2 0 7 2 19 4 27 17 76 16 80 -11 90 -35 14 -132 19 -170 10z"/>
<path d="M6597 5965 c-80 -27 -103 -71 -105 -195 -3 -151 52 -214 183 -213
134 2 189 71 184 231 -3 78 -31 139 -76 165 -40 23 -136 29 -186 12z m111
-117 c13 -17 13 -159 0 -175 -16 -19 -56 -16 -68 6 -14 27 -13 154 2 169 16
16 53 15 66 0z"/>
<path d="M7420 5972 c-50 -15 -79 -37 -100 -75 -20 -35 -24 -56 -25 -132 0
-100 18 -152 67 -188 29 -22 112 -26 146 -8 14 7 23 8 27 1 3 -5 28 -10 55
-10 l49 0 -2 118 -2 117 -75 0 -75 0 0 -45 c0 -32 4 -45 14 -45 18 0 23 -16
12 -34 -13 -20 -55 -6 -68 21 -14 33 -8 138 8 150 12 8 90 6 128 -4 14 -3 17
7 27 79 6 41 5 42 -28 48 -46 9 -139 13 -158 7z"/>
<path d="M8393 5964 c-46 -19 -76 -67 -76 -121 0 -58 24 -91 96 -127 70 -35
77 -60 15 -50 -92 15 -92 15 -96 -43 -2 -29 0 -53 5 -54 4 0 17 -2 28 -5 11
-2 52 -5 92 -6 101 -2 146 28 158 108 11 69 -12 106 -89 144 -36 18 -66 37
-66 43 0 6 25 8 68 4 l69 -7 2 28 c1 15 2 40 4 56 2 33 -2 35 -108 40 -42 2
-83 -2 -102 -10z"/>
<path d="M2629 5968 c-1 -2 -3 -27 -5 -55 l-4 -53 45 0 45 0 0 -150 0 -150 70
0 70 0 0 150 0 150 45 0 c42 0 45 2 46 28 1 15 2 39 3 55 l2 27 -158 0 c-87 0
-158 -1 -159 -2z"/>
<path d="M2969 5964 c-3 -29 -4 -381 -1 -391 3 -9 26 -13 68 -13 l64 0 0 73
c0 82 10 78 36 -15 l17 -58 68 0 c46 0 69 4 69 12 0 6 -12 45 -26 85 l-26 74
21 23 c28 30 37 87 21 136 -21 63 -46 73 -187 78 -68 3 -123 0 -124 -4z m166
-144 c0 -25 -5 -36 -17 -38 -15 -3 -18 4 -18 38 0 34 3 41 18 38 12 -2 17 -13
17 -38z"/>
<path d="M3335 5765 l0 -205 132 0 131 0 4 50 3 50 -62 0 c-63 0 -74 7 -65 43
3 11 13 17 26 16 11 0 35 -1 51 0 29 1 30 2 27 46 -4 47 -12 52 -76 45 -21 -2
-37 17 -29 37 3 9 24 13 64 13 l59 0 1 38 c0 20 2 45 4 55 3 15 -9 17 -133 17
l-137 0 0 -205z"/>
<path d="M3624 5943 c9 -40 15 -68 32 -158 9 -44 17 -84 18 -90 2 -5 9 -38 16
-73 l13 -63 101 3 101 3 17 85 c10 47 20 99 23 115 3 17 8 41 10 55 12 60 16
77 21 113 l7 37 -71 0 -70 0 -6 -37 c-3 -21 -9 -65 -13 -98 -4 -33 -8 -63 -9
-67 -1 -5 -3 -18 -4 -30 -3 -36 -17 30 -24 123 -4 45 -10 87 -13 95 -4 10 -25
14 -80 14 l-75 0 6 -27z"/>
<path d="M4067 5938 c-2 -18 -16 -89 -31 -158 -15 -69 -29 -138 -32 -155 -2
-16 -7 -38 -10 -47 -5 -16 2 -18 59 -18 62 0 64 1 78 32 16 36 50 46 73 22 9
-8 16 -24 16 -35 0 -17 8 -19 71 -19 69 0 71 1 66 23 -3 12 -22 104 -43 205
l-38 182 -102 0 -102 0 -5 -32z m127 -195 c5 -30 4 -33 -20 -33 -25 0 -26 2
-20 38 4 20 9 44 11 52 2 8 4 22 5 30 2 16 15 -31 24 -87z"/>
<path d="M4390 5806 c0 -150 2 -165 21 -190 29 -37 72 -56 132 -60 100 -5 167
30 185 96 4 18 8 96 8 173 l-1 140 -70 0 -70 0 0 -139 c0 -119 -2 -140 -17
-149 -12 -8 -21 -7 -32 2 -13 11 -16 38 -16 152 l0 139 -70 0 -70 0 0 -164z"/>
<path d="M5180 5765 l0 -205 70 0 70 0 0 73 0 73 35 0 35 0 0 -73 0 -73 70 0
70 0 0 205 0 205 -70 0 -70 0 0 -74 c0 -77 -7 -88 -52 -78 -15 3 -18 15 -18
78 l0 74 -70 0 -70 0 0 -205z"/>
<path d="M5583 5765 l0 -205 63 0 63 0 -1 38 c0 20 0 57 1 82 l2 45 42 -82 41
-83 68 0 68 0 0 205 0 205 -64 0 -63 0 -1 -72 c0 -40 -1 -77 -1 -83 -1 -5 -19
27 -41 73 l-39 82 -70 0 -69 0 1 -205z"/>
<path d="M6109 5959 c-1 -8 -2 -101 -3 -207 l-1 -193 108 2 c88 1 115 5 150
23 54 27 84 73 92 141 14 108 -17 193 -80 225 -42 20 -265 28 -266 9z m191
-114 c15 -19 20 -109 8 -146 -9 -27 -47 -46 -58 -30 -4 7 -5 178 -1 189 4 9
41 -1 51 -13z"/>
<path d="M6903 5807 c2 -181 8 -202 69 -233 45 -23 155 -22 205 2 63 31 73 64
73 242 l0 152 -70 0 -69 0 -3 -141 c-3 -121 -5 -143 -20 -153 -34 -21 -42 5
-42 154 l0 140 -73 0 -72 0 2 -163z"/>
<path d="M7693 5765 l0 -205 191 2 191 3 5 30 c4 26 9 29 42 30 34 1 37 -1 43
-32 l6 -33 70 0 c62 0 70 2 65 18 -6 20 -29 133 -31 147 0 6 -4 24 -8 40 -3
17 -9 44 -12 60 -3 17 -11 53 -19 82 -8 28 -11 54 -8 57 3 3 -42 6 -100 6
l-106 0 -7 -37 c-4 -21 -9 -48 -11 -61 -3 -13 -16 -76 -30 -140 -24 -114 -39
-157 -32 -97 3 32 6 31 -83 34 l-26 1 1 138 c1 75 0 143 -2 150 -3 8 -26 12
-72 12 l-67 0 0 -205z m437 43 c1 -7 5 -32 9 -55 8 -41 7 -43 -16 -43 -23 0
-24 3 -19 38 3 20 5 45 6 55 0 19 20 24 20 5z"/>
<path d="M4055 5448 c-50 -28 -46 -61 10 -94 45 -26 57 -47 31 -57 -18 -7 -56
3 -56 14 0 5 -7 9 -15 9 -8 0 -15 -3 -15 -7 1 -40 69 -52 107 -19 33 29 25 54
-24 81 -21 11 -39 28 -41 38 -5 27 26 32 52 8 23 -22 23 -22 29 -2 4 15 -2 22
-26 30 -16 6 -30 11 -31 11 -1 0 -10 -6 -21 -12z"/>
<path d="M4243 5452 c-12 -2 -34 -17 -49 -35 -46 -55 -19 -137 46 -139 79 -2
127 73 90 142 -11 21 -55 37 -87 32z m59 -45 c13 -20 9 -84 -6 -96 -44 -37
-91 -6 -91 61 0 50 24 72 63 57 15 -6 30 -16 34 -22z"/>
<path d="M4543 5428 c0 -33 8 -35 25 -8 7 11 18 20 25 20 19 0 17 -137 -1
-149 -10 -6 -7 -10 10 -13 31 -6 69 6 47 14 -11 4 -15 23 -14 74 1 72 14 91
37 55 18 -29 28 -26 28 7 l0 27 -78 0 -79 0 0 -27z"/>
<path d="M4815 5452 c-2 -2 3 -15 12 -28 14 -22 14 -28 -2 -71 l-18 -47 -19
54 c-10 30 -16 63 -14 73 3 13 -2 17 -23 17 l-28 0 35 -89 c22 -55 39 -88 47
-85 6 3 18 26 26 52 l15 47 19 -52 c17 -48 20 -51 35 -38 9 8 24 41 34 72 10
32 25 66 34 76 14 16 12 17 -24 17 -35 -1 -37 -2 -21 -14 17 -13 17 -17 1 -65
-9 -28 -19 -51 -23 -51 -13 0 -40 104 -30 116 7 8 1 13 -21 16 -16 3 -32 3
-35 0z"/>
<path d="M5195 5449 c-22 -3 -34 -7 -27 -8 16 -1 17 -137 1 -147 -18 -11 8
-21 43 -16 25 4 28 6 14 14 -22 13 -23 136 -1 144 20 8 45 -13 45 -37 0 -11
-9 -21 -24 -25 l-24 -6 31 -44 c22 -32 38 -44 55 -44 l25 0 -24 24 c-49 49
-51 54 -29 68 11 7 20 22 20 34 0 38 -38 54 -105 43z"/>
<path d="M5593 5449 c-12 -4 -13 -8 -5 -13 16 -10 16 -132 0 -143 -19 -12 62
-20 95 -10 61 20 85 91 47 140 -16 20 -31 26 -70 29 -28 1 -58 0 -67 -3z m96
-26 c11 -10 23 -31 25 -46 6 -33 -11 -76 -31 -78 -49 -5 -48 -7 -51 60 -2 45
1 67 10 72 18 12 23 11 47 -8z"/>
<path d="M5847 5453 c-62 -4 -66 -5 -57 -22 12 -23 10 -121 -2 -138 -7 -8 10
-12 61 -15 58 -2 71 0 74 13 3 9 1 22 -3 29 -6 9 -11 7 -19 -9 -8 -14 -21 -21
-41 -21 -28 0 -30 3 -30 35 0 37 25 50 36 20 9 -24 23 -7 19 23 -2 15 -4 29
-5 32 0 3 -5 -3 -11 -12 -18 -31 -39 -22 -39 17 0 32 3 35 29 35 18 0 34 -8
44 -22 16 -23 16 -23 16 10 1 17 0 31 -1 30 -2 -1 -33 -3 -71 -5z"/>
<path d="M6551 5436 c-37 -26 -51 -56 -45 -92 10 -57 55 -82 107 -60 41 17 57
36 64 78 4 27 0 41 -18 62 -30 35 -70 39 -108 12z m83 -28 c7 -10 12 -29 11
-41 -1 -12 -3 -29 -4 -38 -1 -21 -41 -38 -67 -28 -28 10 -46 62 -34 94 17 45
67 52 94 13z"/>
<path d="M6740 5450 c-20 -3 -30 -8 -23 -13 13 -8 15 -114 1 -139 -8 -16 -3
-18 34 -18 38 1 41 2 23 13 -17 10 -20 22 -19 70 1 32 6 63 13 70 18 18 46 -5
46 -39 0 -23 -5 -30 -23 -32 -12 -2 -20 -7 -17 -12 11 -17 65 11 72 38 12 49
-30 74 -107 62z"/>
<path d="M6940 5451 c-45 -4 -68 -9 -57 -13 14 -6 17 -20 17 -71 0 -35 -5 -68
-11 -74 -8 -8 7 -12 59 -15 67 -3 71 -2 75 20 6 30 -9 38 -23 12 -7 -13 -21
-20 -40 -20 -28 0 -30 3 -30 35 0 39 21 48 39 18 11 -18 11 -17 15 30 3 25 1
26 -14 12 -27 -24 -40 -18 -40 20 0 32 3 35 29 35 18 0 34 -8 44 -22 16 -23
16 -23 16 10 1 17 0 31 -1 30 -2 -1 -37 -4 -78 -7z"/>
<path d="M7090 5450 c-30 -3 -39 -7 -28 -12 14 -6 17 -20 16 -70 0 -35 -5 -69
-11 -75 -5 -7 -8 -13 -6 -14 24 -5 51 -4 61 3 10 6 10 8 1 8 -9 0 -13 22 -13
75 0 77 4 84 40 65 23 -12 20 -42 -7 -54 -20 -9 -20 -10 6 -53 19 -32 32 -43
50 -43 l24 0 -20 23 c-38 41 -44 62 -22 75 18 12 21 35 6 58 -9 15 -42 20 -97
14z"/>
<path d="M4380 5440 c17 -11 17 -125 -1 -146 -9 -12 -3 -14 37 -13 40 0 45 2
27 9 -31 13 -33 70 -3 70 11 0 20 -4 20 -10 0 -5 5 -10 10 -10 6 0 10 15 10
33 -1 30 -2 31 -15 13 -21 -27 -46 -13 -43 24 2 27 6 30 34 30 24 0 34 -5 39
-21 5 -14 10 -18 17 -11 6 6 8 18 5 26 -5 13 -22 16 -79 16 -48 0 -68 -3 -58
-10z"/>
<path d="M5024 5415 c-8 -19 -15 -38 -16 -42 -1 -5 -11 -27 -24 -50 l-22 -43
36 0 c34 1 35 2 17 13 -35 20 -20 47 25 47 46 0 69 -26 42 -47 -15 -10 -10
-12 28 -12 37 0 42 2 30 12 -14 11 -30 44 -60 125 -16 42 -37 41 -56 -3z m40
-42 c6 -20 4 -23 -18 -23 -29 0 -33 17 -15 52 12 23 19 16 33 -29z"/>
<path d="M5348 5438 c7 -7 12 -39 12 -73 0 -34 -5 -66 -12 -73 -9 -9 -3 -12
30 -13 111 -3 112 -3 112 19 0 29 -12 34 -27 12 -9 -12 -26 -20 -44 -20 -27 0
-29 3 -29 35 0 28 4 35 20 35 11 0 20 -7 20 -15 0 -8 5 -15 10 -15 6 0 10 16
10 37 0 34 -1 35 -18 20 -29 -26 -42 -20 -42 18 0 32 2 35 29 35 20 0 35 -8
45 -22 9 -12 16 -18 17 -13 0 6 2 18 4 28 3 15 -6 17 -73 17 -59 0 -73 -3 -64
-12z"/>
<path d="M5951 5437 c8 -7 29 -45 45 -84 16 -40 35 -73 41 -73 12 0 63 92 63
114 0 5 10 20 22 33 l21 23 -44 -1 c-36 0 -40 -2 -21 -9 25 -10 28 -20 10 -38
-7 -7 -9 -12 -5 -12 4 0 -2 -18 -13 -41 -12 -23 -23 -39 -25 -37 -2 1 -13 27
-24 57 -17 41 -19 56 -10 67 9 12 4 14 -32 14 -37 -1 -41 -3 -28 -13z"/>
<path d="M6158 5443 c16 -6 16 -135 0 -151 -9 -9 5 -12 65 -12 74 0 77 1 73
23 -3 12 -5 24 -5 27 -1 2 -8 -6 -17 -18 -10 -14 -25 -22 -45 -22 -27 0 -29 3
-29 35 0 28 4 35 20 35 11 0 20 -7 20 -15 0 -32 15 -13 18 22 2 35 1 36 -16
20 -29 -26 -42 -21 -42 18 0 32 2 35 30 35 20 0 33 -7 41 -21 8 -16 13 -18 19
-9 18 30 -1 40 -74 39 -39 0 -65 -3 -58 -6z"/>
<path d="M6338 5438 c7 -7 12 -39 12 -73 0 -34 -5 -66 -12 -73 -9 -9 5 -12 63
-12 74 0 76 1 75 25 -2 35 -11 38 -26 10 -9 -18 -22 -25 -42 -25 -28 0 -28 0
-28 68 0 40 5 73 12 80 9 9 3 12 -27 12 -30 0 -36 -3 -27 -12z"/>
<path d="M2624 5381 c-2 -2 -4 -11 -4 -20 0 -14 56 -16 564 -16 435 0 568 3
577 12 7 7 10 16 6 20 -8 7 -1136 11 -1143 4z"/>
<path d="M7481 5373 c-12 -9 -13 -15 -4 -20 6 -5 265 -8 575 -8 551 0 563 0
563 19 0 19 -12 20 -559 20 -428 1 -563 -2 -575 -11z"/>
</g>
</svg>
